<?xml version="1.0" standalone="no"?><!DOCTYPE svg PUBLIC "-//W3C//DTD SVG 1.1//EN" "http://www.w3.org/Graphics/SVG/1.1/DTD/svg11.dtd"><svg t="1749308145462" class="icon" viewBox="0 0 1024 1024" version="1.1" xmlns="http://www.w3.org/2000/svg" p-id="10290" xmlns:xlink="http://www.w3.org/1999/xlink" width="200" height="200"><path d="M654.4 560.6c-6.4 0-12-4.4-13.6-10.8-1.8-7.6 2.8-15 10.4-17 45-10.8 46.2-37 46.2-37.2 0-7.8 6.2-14 14-14s14 6.2 14 14c0 2-0.8 48.2-67.6 64.4-1.2 0.4-2.4 0.6-3.4 0.6z" fill="#463218" p-id="10291"></path><path d="M712 280.6l54.4 91c16.8 28 17.8 63.2 1.2 91.6-10.4 17.8-27.4 32.6-55.6 32.6-71.8 0-71.8-97.2-71.8-143.4l66.4 47.2 5.4-119z" fill="#FE8E46" p-id="10292"></path><path d="M726 407.2l-18.4-30.8 4.2-96 54.4 91c16.8 28 17.8 63.2 1.2 91.6-8 13.6-19.8 25.4-37.4 30.2 13.6-27.2 11.8-59.8-4-86z" fill="#E56823" p-id="10293"></path><path d="M712 509.6c-26 0-60.4-11.2-76.2-64.4-9.6-32-9.6-68.8-9.6-93 0-5.2 3-10 7.6-12.4 4.6-2.4 10.2-2 14.6 1l45.4 32.2 4.2-93.2c0.2-6.2 4.6-11.4 10.6-13 6-1.6 12.2 1 15.4 6.4l54.4 91c19.6 32.8 20.2 73.4 1.4 105.8-15.2 26-38.6 39.6-67.8 39.6z m-57.2-130c2.2 55.8 13.6 102 57.2 102 19.2 0 33.6-8.4 43.6-25.6 13.8-23.6 13.2-53.2-1.2-77.4L724 327.6l-3.2 72.2c-0.2 5.2-3.2 9.8-7.8 12-4.6 2.2-10 1.8-14.2-1.2l-44-31zM795.4 606.6c-3.6 0-7.4-1.4-10-4.2l-9.4-9.6c-15-15.6-37.8-20.6-58-12.6l-30.2 11.8c-7.2 2.8-15.4-0.8-18.2-8-2.8-7.2 0.8-15.4 8-18.2L708 554c30.8-12 65.4-4.4 88.2 19.4l9.4 9.6c5.4 5.6 5.2 14.4-0.4 19.8-2.8 2.6-6.2 3.8-9.8 3.8zM770 664c-4.6 0-9.2-2.2-11.8-6.4-11.8-18.4-34.2-27.8-55.6-23.4l-9.2 1.8c-7.6 1.6-15-3.4-16.6-11-1.6-7.6 3.4-15 11-16.6l9.2-1.8c32.8-6.6 66.8 7.6 84.8 35.8 4.2 6.6 2.2 15.2-4.2 19.4-2.4 1.6-5 2.2-7.6 2.2zM739.2 737.4c-4.8 0-9.6-2.6-12.2-7.2l-4-7.2c-9.4-16.8-27.4-27.2-46.6-27.2h-11.6c-7.8 0-14-6.2-14-14s6.2-14 14-14h11.6c29.4 0 56.6 16 71 41.6l4 7.2c3.8 6.8 1.4 15.2-5.4 19-2.2 1.2-4.6 1.8-6.8 1.8z" fill="#463218" p-id="10294"></path><path d="M675.2 565.4l-28.8-30.2c-27.4-28.8-65.2-45-104.8-45h-57c-39.6 0-77.6 16.2-104.8 45l-28.8 30.2c-16.6 17.4-21.8 42.8-13.6 65.4 16.2 44.6 47.8 112.6 90.2 112.6h171.2c42.6 0 74.2-68 90.2-112.6 8-22.6 2.8-47.8-13.8-65.4z" fill="#FE8E46" p-id="10295"></path><path d="M598.6 681.8h-23-148.2c-39.4 0-69.4-58.4-86.4-102.6-8.4 15.6-10 34.4-3.8 51.6 16.2 44.6 47.8 112.6 90.2 112.6h171.2c42.6 0 74.2-68 90.2-112.6 6.2-17.2 4.6-36-3.8-51.6-17 44.2-47 102.6-86.4 102.6z" fill="#E56823" p-id="10296"></path><path d="M312 280.6l-54.4 91c-16.8 28-17.8 63.2-1.2 91.6 10.4 17.8 27.4 32.6 55.6 32.6 71.8 0 71.8-97.2 71.8-143.4l-66.4 47.2-5.4-119z" fill="#FE8E46" p-id="10297"></path><path d="M298 407.2l18.4-30.8-4.2-96-54.4 91c-16.8 28-17.8 63.2-1.2 91.6 8 13.6 19.8 25.4 37.4 30.2-13.6-27.2-11.8-59.8 4-86z" fill="#E56823" p-id="10298"></path><path d="M598.6 757.4h-171.2c-49 0-83.4-66.4-103.4-122-10-27.8-3.6-58.4 16.6-79.8l28.8-30.2c29.8-31.4 71.8-49.4 115-49.4h57.2c43.2 0 85.2 18 115 49.4l28.8 30.2c20.4 21.4 26.8 52 16.6 79.8-20 55.8-54.4 122-103.4 122z m-114-253.2c-35.6 0-70.2 14.8-94.6 40.6l-28.8 30.2c-13 13.6-17 33.2-10.6 51 23.4 64.8 52.2 103.4 77.2 103.4h171.2c24.8 0 53.8-38.6 77.2-103.4 6.4-17.8 2.4-37.2-10.6-51l-28.8-30.2c-24.6-25.8-59-40.6-94.6-40.6h-57.6zM312 509.6c-29.2 0-52.8-13.6-67.8-39.4-18.8-32.4-18.4-72.8 1.4-105.8l54.4-91c3.2-5.4 9.4-8 15.4-6.4 6 1.6 10.2 6.8 10.6 13l4.2 93.2 45.4-32.2c4.2-3 9.8-3.4 14.6-1 4.6 2.4 7.6 7.2 7.6 12.4 0 24.2 0 61-9.6 93-15.8 53-50.2 64.2-76.2 64.2z m-11.8-181.8l-30.4 51c-14.4 24.2-14.8 53.8-1.2 77.4 10 17.2 24.2 25.6 43.6 25.6 43.6 0 55-46.2 57.2-102l-43.8 31.2c-4.2 3-9.6 3.4-14.2 1.2s-7.6-6.8-7.8-12l-3.4-72.4z" fill="#463218" p-id="10299"></path><path d="M369 560.6c-1 0-2.2-0.2-3.4-0.4-66.8-16.2-67.6-62.4-67.6-64.4h28v-0.2c0 1 1.8 26.8 46.2 37.6 7.6 1.8 12.2 9.4 10.4 17-1.6 6-7.4 10.4-13.6 10.4zM228.6 606.6c-3.4 0-7-1.4-9.8-4-5.6-5.4-5.8-14.2-0.4-19.8l9.4-9.6c23-23.8 57.6-31.4 88.2-19.4l30.2 11.8c7.2 2.8 10.8 11 8 18.2-2.8 7.2-11 10.8-18.2 8l-30.2-11.8c-20.2-7.8-43-3-58 12.6l-9.4 9.6c-2.6 3-6.2 4.4-9.8 4.4zM254 664c-2.6 0-5.2-0.8-7.6-2.2-6.6-4.2-8.4-12.8-4.2-19.4 18-28 52.2-42.4 84.8-35.8l9.2 1.8c7.6 1.6 12.4 9 11 16.6s-9 12.4-16.6 11l-9.2-1.8c-21.4-4.4-43.8 5-55.6 23.4-2.6 4.2-7.2 6.4-11.8 6.4zM284.8 737.4c-2.4 0-4.6-0.6-6.8-1.8-6.8-3.8-9.2-12.4-5.4-19l4-7.2c14.4-25.6 41.6-41.6 71-41.6h11.6c7.8 0 14 6.2 14 14s-6.2 14-14 14h-11.6c-19.2 0-37.2 10.4-46.6 27.2l-4 7.2c-2.4 4.6-7.2 7.2-12.2 7.2z" fill="#463218" p-id="10300"></path><path d="M459.8 459.8m-30.4 0a30.4 30.4 0 1 0 60.8 0 30.4 30.4 0 1 0-60.8 0Z" fill="#463218" p-id="10301"></path><path d="M566.2 459.8m-30.4 0a30.4 30.4 0 1 0 60.8 0 30.4 30.4 0 1 0-60.8 0Z" fill="#463218" p-id="10302"></path><path d="M621.8 639.2l-26.4-9.4 5.4-15.4c4.4-12.2 0-26.2-10.6-33.8l-24.2-17.8 16.4-22.6 24.2 17.8c20.4 15 28.8 42 20.4 65.8l-5.2 15.4z" fill="#FFFFFF" p-id="10303"></path></svg>