<?xml version="1.0" standalone="no"?><!DOCTYPE svg PUBLIC "-//W3C//DTD SVG 1.1//EN" "http://www.w3.org/Graphics/SVG/1.1/DTD/svg11.dtd"><svg t="1749307897824" class="icon" viewBox="0 0 1024 1024" version="1.1" xmlns="http://www.w3.org/2000/svg" p-id="3152" xmlns:xlink="http://www.w3.org/1999/xlink" width="200" height="200"><path d="M640 928H384a32 32 0 0 1 0-64h96V768a32 32 0 0 1 32-32A224.256 224.256 0 0 0 736 512a32 32 0 0 1 64 0c0 148.010667-112.213333 270.250667-256 286.250667v65.749333H640a32 32 0 0 1 0 64z m-269.568-170.666667a31.829333 31.829333 0 0 1-17.706667-5.333333A287.573333 287.573333 0 0 1 224 512a32 32 0 0 1 64 0c0 75.221333 37.418667 144.981333 100.138667 186.666667a32 32 0 0 1-17.706667 58.666666z m141.568-85.333333A160.213333 160.213333 0 0 1 352 512V256A160.170667 160.170667 0 0 1 512 96 160.213333 160.213333 0 0 1 672 256a32 32 0 0 1-64 0c0-52.949333-43.093333-96-96-96A96.085333 96.085333 0 0 0 416 256v256c0 52.906667 43.050667 96 96 96 52.906667 0 96-43.093333 96-96V384a32 32 0 0 1 64 0v128A160.213333 160.213333 0 0 1 512 672z" fill="#d81e06" p-id="3153"></path></svg>